# xmcd
#
# Track frame offsets:
#        150
#        33652
#        59490
#        76005
#        99622
#        118982
#        146387
#        194205
#        227022
#        239950
#        279422
#
# Disc length: 4323 seconds
#
# Revision: 0
# Processed by: cddbd v1.5.1PL0 Copyright (c) Steve Scherf et al.
# Submitted via: ExactAudioCopy v0.95a5
#
DISCID=a610e10b
DTITLE=Aretha Franklin - Aretha, The Queen! Holy Lady
DYEAR=1900
DGENRE=Soul
TTITLE0=Mary, Don't You Weep
TTITLE1=Precious Load, Take My Hand - You've Got a Friend
TTITLE2=Old Landmark
TTITLE3=Give Yourself to Jesus
TTITLE4=How I Got Over
TTITLE5=What a Friend We Have in Jesus
TTITLE6=Amazing Grace
TTITLE7=Precious Memories
TTITLE8=Climbing Higher Mounains
TTITLE9=God Will Take Care of You
TTITLE10=Never Grow Old
EXTD=
EXTT0=
EXTT1=
EXTT2=
EXTT3=
EXTT4=
EXTT5=
EXTT6=
EXTT7=
EXTT8=
EXTT9=
EXTT10=
PLAYORDER=
